<svg xmlns="http://www.w3.org/2000/svg" viewBox="0 0 512 512">
  <rect width="512" height="512" rx="114" fill="#FFFFFF"/>
  <rect x="110" y="342" width="292" height="6" rx="3" fill="#111827"/>
  <rect x="118" y="178" width="44" height="164" rx="4" fill="#111827"/>
  <rect x="170" y="152" width="44" height="190" rx="4" fill="#111827"/>
  <rect x="222" y="198" width="44" height="144" rx="4" fill="#111827"/>
  <rect x="274" y="172" width="44" height="170" rx="4" fill="#111827"/>
  <rect x="326" y="192" width="44" height="150" rx="4" fill="#111827"/>
  <g fill="#111827">
    <rect x="160" y="378" width="10" height="22" rx="5"/>
    <rect x="180" y="370" width="10" height="38" rx="5"/>
    <rect x="200" y="362" width="10" height="54" rx="5"/>
    <rect x="220" y="366" width="10" height="46" rx="5"/>
    <rect x="240" y="374" width="10" height="30" rx="5"/>
    <rect x="260" y="360" width="10" height="58" rx="5"/>
    <rect x="280" y="368" width="10" height="42" rx="5"/>
    <rect x="300" y="372" width="10" height="34" rx="5"/>
    <rect x="320" y="378" width="10" height="22" rx="5"/>
    <rect x="340" y="370" width="10" height="38" rx="5"/>
  </g>
</svg>
